<svg xmlns="http://www.w3.org/2000/svg" viewBox="0 0 750 500"><g id="freepik--background-complete--inject-84"><rect x="479.27" y="343.02" width="180.26" height="83.13" style="fill:#f5f5f5"></rect><path d="M655.24,422.23H483.4V347.39H655.24Zm-170.72-1.12h169.6v-72.6H484.52Z" style="fill:#e0e0e0"></path><rect x="659.53" y="343.02" width="44.04" height="83.13" style="fill:#e0e0e0"></rect><path d="M484,370.55H654.68a.23.23,0,0,0,0-.45H484a.23.23,0,0,0,0,.45Z" style="fill:#e0e0e0"></path><path d="M569.88,370.33a187.09,187.09,0,0,0,0-22.59.23.23,0,0,0-.46,0,189.17,189.17,0,0,0,.06,22.59.18.18,0,0,0,.35,0Z" style="fill:#e0e0e0"></path><path d="M615.83,359a2.33,2.33,0,1,1-2.33-2.33A2.32,2.32,0,0,1,615.83,359Z" style="fill:#e0e0e0"></path><path d="M526.23,359a2.33,2.33,0,1,1-2.32-2.33A2.32,2.32,0,0,1,526.23,359Z" style="fill:#e0e0e0"></path><path d="M571.64,384.81a2.33,2.33,0,1,1-2.32-2.32A2.32,2.32,0,0,1,571.64,384.81Z" style="fill:#e0e0e0"></path><polygon points="500.82 426.15 491.54 478.34 496.76 478.34 513.87 426.15 500.82 426.15" style="fill:#e0e0e0"></polygon><polygon points="646.78 426.15 654.54 478.43 649.32 478.43 633.73 426.15 646.78 426.15" style="fill:#e0e0e0"></polygon><polygon points="681.62 426.15 690.42 478.43 685.2 478.43 668.57 426.15 681.62 426.15" style="fill:#e0e0e0"></polygon><path d="M571.49,408.34a2.33,2.33,0,1,1-2.33-2.33A2.32,2.32,0,0,1,571.49,408.34Z" style="fill:#e0e0e0"></path><path d="M484,396.3H654.68a.23.23,0,0,0,0-.46H484a.23.23,0,0,0,0,.46Z" style="fill:#e0e0e0"></path><rect x="572.3" y="282.15" width="11.09" height="54.5" transform="translate(884.19 -270.07) rotate(89.7)" style="fill:#e0e0e0"></rect><rect x="572.64" y="303.95" width="17.24" height="60.75" transform="translate(912.5 -248.69) rotate(89.7)" style="fill:#f5f5f5"></rect><path d="M600,342.67a64.35,64.35,0,0,1-.29-8.62,64.23,64.23,0,0,1,.29-8.62,63.15,63.15,0,0,1,.3,8.62A63.27,63.27,0,0,1,600,342.67Z" style="fill:#e0e0e0"></path><path d="M602.52,342.67a64.35,64.35,0,0,1-.29-8.62,64.23,64.23,0,0,1,.29-8.62,63.15,63.15,0,0,1,.3,8.62A63.27,63.27,0,0,1,602.52,342.67Z" style="fill:#e0e0e0"></path><path d="M560.07,342.67c-.17,0-.3-3.86-.3-8.62s.13-8.62.3-8.62a64.23,64.23,0,0,1,.29,8.62A64.35,64.35,0,0,1,560.07,342.67Z" style="fill:#e0e0e0"></path><path d="M562.62,342.67a63.27,63.27,0,0,1-.3-8.62,63.15,63.15,0,0,1,.3-8.62,64.23,64.23,0,0,1,.29,8.62A64.35,64.35,0,0,1,562.62,342.67Z" style="fill:#e0e0e0"></path><path d="M568.19,334.32c0-.16,6.13-.3,13.68-.3s13.69.14,13.69.3-6.13.3-13.69.3S568.19,334.49,568.19,334.32Z" style="fill:#e0e0e0"></path><rect x="591.43" y="282.62" width="11.09" height="74.96" transform="translate(913.91 -278.56) rotate(89.7)" style="fill:#ebebeb"></rect><path d="M623.75,324.07a3.59,3.59,0,1,1,3.54-3.59A3.57,3.57,0,0,1,623.75,324.07Z" style="fill:#e0e0e0"></path><rect x="587.81" y="295.39" width="2.22" height="50.18" transform="translate(909.4 -268.44) rotate(90)" style="fill:#e0e0e0"></rect><path d="M48.15,111.19s-6.37,4.86-.26,11.28a.55.55,0,0,0,.4.18l55.73-.33s4.76-5.34.81-11.49Z" style="fill:#ebebeb"></path><path d="M91.71,116.27c0,.06-6.94.11-15.5.11s-15.5,0-15.5-.11,6.94-.12,15.5-.12S91.71,116.2,91.71,116.27Z" style="fill:#e0e0e0"></path><path d="M83,118.28c0,.06-3.26.11-7.29.11s-7.29,0-7.29-.11,3.27-.11,7.29-.11S83,118.22,83,118.28Z" style="fill:#e0e0e0"></path><path d="M97.41,122.14s.12-.64.29-1.67A23.53,23.53,0,0,0,98,116.4a22.56,22.56,0,0,0-.4-4.06c-.19-1-.36-1.65-.32-1.66a2,2,0,0,1,.16.43c.09.28.2.69.32,1.2a19.71,19.71,0,0,1,.08,8.19c-.11.51-.21.93-.3,1.21A2.62,2.62,0,0,1,97.41,122.14Z" style="fill:#e0e0e0"></path><path d="M101.57,110.76a2,2,0,0,1,.24.41,3.31,3.31,0,0,1,.25.5,6.61,6.61,0,0,1,.29.68,13.15,13.15,0,0,1,.53,1.85,13.91,13.91,0,0,1,.24,2.34,13.16,13.16,0,0,1-.21,2.35,11.22,11.22,0,0,1-.5,1.86c-.08.26-.19.48-.27.69s-.17.36-.24.5a2.42,2.42,0,0,1-.24.41s.27-.62.6-1.65a13.06,13.06,0,0,0,.45-1.84,14,14,0,0,0,.18-2.32,13.62,13.62,0,0,0-.69-4.14C101.85,111.38,101.53,110.78,101.57,110.76Z" style="fill:#e0e0e0"></path><path d="M57,122.22a1.66,1.66,0,0,1-.26-.38,3.59,3.59,0,0,1-.26-.46c-.09-.19-.21-.4-.3-.64a9.71,9.71,0,0,1-.54-1.76,10.54,10.54,0,0,1-.22-2.25,10.87,10.87,0,0,1,.28-2.23,9.39,9.39,0,0,1,.59-1.75c.1-.24.22-.45.31-.63a3.45,3.45,0,0,1,.28-.46,2,2,0,0,1,.26-.36s-.32.56-.71,1.51a12,12,0,0,0-.53,1.73,11.46,11.46,0,0,0-.25,2.2,11.71,11.71,0,0,0,.19,2.2,9.94,9.94,0,0,0,.49,1.74C56.64,121.65,57,122.19,57,122.22Z" style="fill:#e0e0e0"></path><path d="M50.93,123.58a4.46,4.46,0,0,1-.29-.43c-.08-.14-.19-.31-.29-.52a7.15,7.15,0,0,1-.33-.72,11.41,11.41,0,0,1-.64-2,13.64,13.64,0,0,1-.32-2.51,13.42,13.42,0,0,1,.21-2.53,10.66,10.66,0,0,1,.55-2,7.78,7.78,0,0,1,.3-.73,4.49,4.49,0,0,1,.27-.54c.16-.29.25-.44.27-.43s-.32.65-.69,1.75a12.64,12.64,0,0,0-.5,2,13.91,13.91,0,0,0-.18,2.48,14.3,14.3,0,0,0,.29,2.48,14,14,0,0,0,.58,1.95C50.59,122.94,51,123.55,50.93,123.58Z" style="fill:#e0e0e0"></path><path d="M102,139.29V150H81.34V139.29Z" style="fill:#ebebeb"></path><path d="M35.33,144.73c0,.09,0,.18,0,.28a6.11,6.11,0,0,0,6.14,5.72h61.46V150H88.35A5.33,5.33,0,0,1,83,144.63h0a5.34,5.34,0,0,1,5.33-5.34h14.59v-1.13l-61.48.21A6.15,6.15,0,0,0,35.33,144.73Z" style="fill:#e0e0e0"></path><path d="M102,144.77c0,.06-4.24.11-9.48.11s-9.47,0-9.47-.11,4.24-.11,9.47-.11S102,144.71,102,144.77Z" style="fill:#e0e0e0"></path><path d="M101.68,147.17c0,.06-4,.11-9,.11s-9-.05-9-.11,4-.11,9-.11S101.68,147.11,101.68,147.17Z" style="fill:#e0e0e0"></path><path d="M102,149.37c0,.06-3.61.11-8.06.11s-8.06,0-8.06-.11,3.6-.11,8.06-.11S102,149.31,102,149.37Z" style="fill:#e0e0e0"></path><path d="M102,142.61c0,.06-4.16.11-9.28.11s-9.29-.05-9.29-.11,4.16-.11,9.29-.11S102,142.55,102,142.61Z" style="fill:#e0e0e0"></path><path d="M101.68,140.45c0,.06-3.7.11-8.26.11s-8.26-.05-8.26-.11,3.69-.11,8.26-.11S101.68,140.39,101.68,140.45Z" style="fill:#e0e0e0"></path><path d="M42.77,138.55a13.08,13.08,0,0,0-1.3,1.55,7.9,7.9,0,0,0,.11,9.14,12.77,12.77,0,0,0,1.34,1.52,2.17,2.17,0,0,1-.44-.33,6.31,6.31,0,0,1-1-1.1,7.76,7.76,0,0,1-.11-9.32,6.75,6.75,0,0,1,1-1.13A2.34,2.34,0,0,1,42.77,138.55Z" style="fill:#f5f5f5"></path><path d="M40.7,138.32a13.52,13.52,0,0,0-1.31,1.55,8.19,8.19,0,0,0-1.4,4.59A8.08,8.08,0,0,0,39.5,149a12.77,12.77,0,0,0,1.34,1.52,1.85,1.85,0,0,1-.44-.32,7.68,7.68,0,0,1-1-1.1,7.78,7.78,0,0,1-.11-9.33,7.07,7.07,0,0,1,1-1.12A2,2,0,0,1,40.7,138.32Z" style="fill:#f5f5f5"></path><path d="M82.46,138.55a12.48,12.48,0,0,0-1.31,1.55,7.9,7.9,0,0,0,.11,9.14,14,14,0,0,0,1.34,1.52,2.56,2.56,0,0,1-.44-.33,6.72,6.72,0,0,1-1-1.1A7.8,7.8,0,0,1,81,140a7.79,7.79,0,0,1,1-1.13A2.17,2.17,0,0,1,82.46,138.55Z" style="fill:#f5f5f5"></path><path d="M80.38,138.32a13.52,13.52,0,0,0-1.31,1.55,7.9,7.9,0,0,0,.11,9.14,14,14,0,0,0,1.34,1.52,2.12,2.12,0,0,1-.44-.32,7.68,7.68,0,0,1-1-1.1,7.82,7.82,0,0,1-.11-9.33,7.61,7.61,0,0,1,1-1.12A2,2,0,0,1,80.38,138.32Z" style="fill:#f5f5f5"></path><path d="M49.77,146.22l-.06-4.33a3,3,0,0,0-.15-1.12,1,1,0,0,0-.82-.69,1.65,1.65,0,0,0-1.77.83,4.19,4.19,0,0,0-.43,2.13,30.3,30.3,0,0,0,.17,3.43,3.79,3.79,0,0,0,.4,1.56,1.45,1.45,0,0,0,1.32.8,1.47,1.47,0,0,0,1.16-1A4.29,4.29,0,0,0,49.77,146.22Z" style="fill:#f5f5f5"></path><path d="M73.64,145c0,.06-4.44.11-9.92.11s-9.93-.05-9.93-.11,4.45-.11,9.93-.11S73.64,144.92,73.64,145Z" style="fill:#f5f5f5"></path><polygon points="45.65 138.12 45.54 128.01 51.04 128.01 51.23 138.12 45.65 138.12" style="fill:#f5f5f5"></polygon><path d="M50.72,129.81a15.12,15.12,0,0,1-2.56.11,15.12,15.12,0,0,1-2.56-.11,15.12,15.12,0,0,1,2.56-.11A15.12,15.12,0,0,1,50.72,129.81Z" style="fill:#e0e0e0"></path><path d="M50.72,131.37a15.12,15.12,0,0,1-2.56.11,15.12,15.12,0,0,1-2.56-.11,15.12,15.12,0,0,1,2.56-.11A15.12,15.12,0,0,1,50.72,131.37Z" style="fill:#e0e0e0"></path><path d="M50.72,132.93a15.12,15.12,0,0,1-2.56.11,15.12,15.12,0,0,1-2.56-.11,15.12,15.12,0,0,1,2.56-.11A15.12,15.12,0,0,1,50.72,132.93Z" style="fill:#e0e0e0"></path><path d="M50.72,134.49a15.12,15.12,0,0,1-2.56.11,15.12,15.12,0,0,1-2.56-.11,15.12,15.12,0,0,1,2.56-.11A15.12,15.12,0,0,1,50.72,134.49Z" style="fill:#e0e0e0"></path><path d="M50.72,136.05a15.12,15.12,0,0,1-2.56.11,15.12,15.12,0,0,1-2.56-.11,15.12,15.12,0,0,1,2.56-.11A15.12,15.12,0,0,1,50.72,136.05Z" style="fill:#e0e0e0"></path><path d="M45.25,127.74h61a28.87,28.87,0,0,1,0,10.93H45.51v-.74h3.71A1.75,1.75,0,0,0,51,136.18v-6.05a1.75,1.75,0,0,0-1.75-1.75h-4Z" style="fill:#ebebeb"></path><path d="M59.67,133.21h1a.2.2,0,0,1,.11,0,.2.2,0,0,1,.11.19.15.15,0,0,1,0,.07l-.06.26a3,3,0,0,1-.64,1.15,1.2,1.2,0,0,1-.87.45H59.2a1,1,0,0,1-.69-.5,2.22,2.22,0,0,1-.31-1.23,3.37,3.37,0,0,1,.12-.87,2.88,2.88,0,0,1,.61-1.18,1.22,1.22,0,0,1,.91-.48.85.85,0,0,1,.39.08,1.25,1.25,0,0,1,.59.75.17.17,0,0,1,0,.1.22.22,0,0,1-.22.22l-.07,0a.19.19,0,0,1-.14-.13v0a.9.9,0,0,0-.12-.24.58.58,0,0,0-.49-.29.61.61,0,0,0-.34.12,1.76,1.76,0,0,0-.55.8,3,3,0,0,0-.24,1.15,2.16,2.16,0,0,0,.17.9.61.61,0,0,0,.53.4.7.7,0,0,0,.49-.3,2.66,2.66,0,0,0,.53-.94h-.73c-.16,0-.24-.11-.25-.25s0,0,0-.07A.22.22,0,0,1,59.67,133.21Z" style="fill:#fafafa"></path><path d="M63.13,131.23l0,.07c0,.15.28,1.41.71,3.78a.13.13,0,0,1,0,.06.26.26,0,0,1,0,.11.2.2,0,0,1-.18.11h0a.2.2,0,0,1-.17-.15L63.23,134H62l-.6,1.26,0,0a.26.26,0,0,1-.19.11.19.19,0,0,1-.12,0,.21.21,0,0,1-.1-.18.25.25,0,0,1,0-.07c0-.08.1-.22.18-.41.88-1.91,1.4-3,1.58-3.39a.23.23,0,0,1,.41,0Zm-.27.84-.68,1.43h1Z" style="fill:#fafafa"></path><path d="M66.53,135.36H64.69a.19.19,0,0,1-.12,0s-.08-.11-.1-.23h0c0-.07.17-1.33.51-3.76a.19.19,0,0,1,0-.08.2.2,0,0,1,.2-.14.19.19,0,0,1,.1,0,.2.2,0,0,1,.11.19c0,.17-.06.51-.12,1q-.32,2.41-.33,2.55h1.56a.25.25,0,0,1,.12,0,.21.21,0,0,1,.14.2s0,.05,0,.08A.27.27,0,0,1,66.53,135.36Z" style="fill:#fafafa"></path><path d="M69,131.23l0,.07q.06.22.72,3.78a.13.13,0,0,1,0,.06.26.26,0,0,1,0,.11.2.2,0,0,1-.18.11h0a.23.23,0,0,1-.17-.15L69.14,134H67.89l-.6,1.26a.08.08,0,0,0,0,0,.26.26,0,0,1-.19.11.16.16,0,0,1-.12,0,.19.19,0,0,1-.1-.18.2.2,0,0,1,0-.07l.19-.41c.88-1.91,1.4-3,1.57-3.39a.23.23,0,0,1,.21-.15A.22.22,0,0,1,69,131.23Zm-.27.84-.68,1.43h1Z" style="fill:#fafafa"></path><path d="M72,133.4c.15.39.26.7.33.92.19.52.29.8.29.83a.17.17,0,0,1,0,.11.19.19,0,0,1-.18.1q-.12,0-.18-.15l0-.09c-.1-.23-.26-.66-.49-1.3l-1,1.42a.24.24,0,0,1-.19.12l-.12,0a.19.19,0,0,1-.1-.18v-.05a.69.69,0,0,1,.11-.18c.35-.45.74-1,1.16-1.61,0-.12-.09-.24-.13-.35-.39-1-.59-1.59-.59-1.62a.2.2,0,0,1,0-.11.18.18,0,0,1,.18-.11.21.21,0,0,1,.2.12l.62,1.65L73,131.23a.26.26,0,0,1,.2-.11.17.17,0,0,1,.1,0,.2.2,0,0,1,.11.19.19.19,0,0,1,0,.1Z" style="fill:#fafafa"></path><path d="M76.52,131.13a.17.17,0,0,1,.1,0,.21.21,0,0,1,.12.19c-.3,2.37-.47,3.66-.5,3.85a2.38,2.38,0,0,1-.39,1,1.44,1.44,0,0,1-1.22.6,1.34,1.34,0,0,1-.59-.16,1.31,1.31,0,0,1-.65-.56.22.22,0,0,1,0-.11.22.22,0,0,1,.22-.22.19.19,0,0,1,.16.09,1.2,1.2,0,0,0,.94.54,1,1,0,0,0,.73-.37,2,2,0,0,0,.41-1.16,1.06,1.06,0,0,1-.27.29,1.13,1.13,0,0,1-.66.21h-.12a1,1,0,0,1-.7-.51,2.19,2.19,0,0,1-.31-1.22q0-.33,0-.69c0-.37.12-.9.25-1.58a.14.14,0,0,1,0-.07.2.2,0,0,1,.2-.15.19.19,0,0,1,.1,0,.18.18,0,0,1,.11.18,7.38,7.38,0,0,1-.1.84,12.68,12.68,0,0,0-.14,1.28,2.53,2.53,0,0,0,.16,1c.13.3.31.45.55.45H75a1,1,0,0,0,.55-.44,2.65,2.65,0,0,0,.45-1l.28-2.1,0-.09A.2.2,0,0,1,76.52,131.13Z" style="fill:#fafafa"></path><path d="M104,138.81c-.07,0-.12-2.51-.12-5.6s0-5.61.12-5.61.11,2.51.11,5.61S104,138.81,104,138.81Z" style="fill:#f5f5f5"></path><path d="M54,138.81c-.06,0-.12-2.51-.12-5.6s.06-5.61.12-5.61.11,2.51.11,5.61S54.1,138.81,54,138.81Z" style="fill:#e0e0e0"></path><path d="M105,138.81c-.07,0-.12-2.51-.12-5.6s0-5.61.12-5.61.11,2.51.11,5.61S105.08,138.81,105,138.81Z" style="fill:#f5f5f5"></path><path d="M53,138.81c-.07,0-.12-2.51-.12-5.6s0-5.61.12-5.61.11,2.51.11,5.61S53.1,138.81,53,138.81Z" style="fill:#e0e0e0"></path><path d="M89.16,129.45v0l6.44,5.2.06.05h-.07l-.86.23-5.44,1.43h0l-4.93-2.1-1.4-.59-.37-.16-.09-.05h0l.1,0,.37.15,1.4.58,5,2.07h0l5.44-1.43.86-.23v.07l-6.43-5.22h0" style="fill:#e0e0e0"></path><polygon points="95.01 133.82 95.36 134.15 95.83 134.05 95.63 134.49 95.87 134.9 95.39 134.84 95.07 135.2 94.98 134.73 94.54 134.53 94.96 134.3 95.01 133.82" style="fill:#e0e0e0"></polygon><polygon points="88.83 135.87 89.07 136.07 89.37 135.99 89.25 136.28 89.43 136.53 89.11 136.51 88.92 136.76 88.84 136.46 88.55 136.35 88.82 136.18 88.83 135.87" style="fill:#e0e0e0"></polygon><polygon points="82 133.07 82.38 133.09 82.62 132.79 82.71 133.16 83.07 133.29 82.75 133.5 82.73 133.88 82.44 133.64 82.07 133.74 82.21 133.39 82 133.07" style="fill:#e0e0e0"></polygon><polygon points="97.9 129.53 98.28 129.55 98.52 129.25 98.62 129.62 98.98 129.76 98.65 129.96 98.64 130.34 98.34 130.1 97.97 130.21 98.12 129.85 97.9 129.53" style="fill:#e0e0e0"></polygon><polygon points="88.85 129.28 89.09 129.29 89.24 129.1 89.3 129.34 89.53 129.42 89.33 129.55 89.32 129.8 89.13 129.64 88.89 129.71 88.98 129.48 88.85 129.28" style="fill:#e0e0e0"></polygon><path d="M98.44,129.8s-2.09-.05-4.66-.16-4.65-.22-4.65-.24,2.08,0,4.66.15S98.44,129.77,98.44,129.8Z" style="fill:#e0e0e0"></path><path d="M100.78,127.65H38.92c-.81-1.84-1-3.59,0-5.15h61.86A6,6,0,0,1,100.78,127.65Z" style="fill:#e0e0e0"></path><rect x="51.73" y="123.97" width="33.51" height="1.87" style="fill:#ebebeb"></rect><path d="M41.3,127.68a1.92,1.92,0,0,1-.49-.63,4.35,4.35,0,0,1-.56-1.82,4.45,4.45,0,0,1,.23-1.9,1.92,1.92,0,0,1,.37-.7,4.14,4.14,0,0,1-.22.75,5.53,5.53,0,0,0-.16,1.83A5.3,5.3,0,0,0,41,127,6.13,6.13,0,0,1,41.3,127.68Z" style="fill:#e0e0e0"></path><path d="M42.64,127.68a1.92,1.92,0,0,1-.49-.63,4.49,4.49,0,0,1-.57-1.82,4.6,4.6,0,0,1,.24-1.9,1.92,1.92,0,0,1,.37-.7,4.14,4.14,0,0,1-.22.75,5.53,5.53,0,0,0-.16,1.83,5.07,5.07,0,0,0,.48,1.77A6.13,6.13,0,0,1,42.64,127.68Z" style="fill:#e0e0e0"></path><path d="M98.28,127.56a10.47,10.47,0,0,0,.43-2.52,10.67,10.67,0,0,0-.4-2.52,4.45,4.45,0,0,1,.63,2.52A4.54,4.54,0,0,1,98.28,127.56Z" style="fill:#f5f5f5"></path><path d="M97.13,127.54c-.07,0,.19-1.1.18-2.46s-.26-2.45-.19-2.47a6.09,6.09,0,0,1,.42,2.47A5.92,5.92,0,0,1,97.13,127.54Z" style="fill:#f5f5f5"></path><rect x="129.98" y="51.01" width="22.03" height="23.36" transform="translate(-0.33 0.75) rotate(-0.31)" style="fill:#ebebeb"></rect><rect x="151.9" y="50.89" width="22.03" height="23.36" transform="matrix(1, -0.01, 0.01, 1, -0.33, 0.87)" style="fill:#f5f5f5"></rect><path d="M130,57.52q22,.18,44-.2a.24.24,0,0,0,0-.47c-14.63-.08-29.31,0-43.94.27a.2.2,0,0,0,0,.4Z" style="fill:#e0e0e0"></path><rect x="116.23" y="74.03" width="40.02" height="19.04" transform="translate(-0.45 0.73) rotate(-0.31)" style="fill:#ebebeb"></rect><rect x="156.06" y="73.82" width="40.02" height="19.04" transform="translate(-0.44 0.94) rotate(-0.31)" style="fill:#f5f5f5"></rect><path d="M116.21,79.43c26.58.31,53.26,0,79.84-.39a.24.24,0,0,0,0-.47c-26.58-.14-53.26-.12-79.84.46a.2.2,0,0,0,0,.4Z" style="fill:#e0e0e0"></path><rect x="80.11" y="181.8" width="40.02" height="19.04" transform="translate(-1.02 0.54) rotate(-0.31)" style="fill:#ebebeb"></rect><rect x="119.94" y="181.59" width="40.02" height="19.04" transform="translate(-1.02 0.75) rotate(-0.31)" style="fill:#f5f5f5"></rect><path d="M80.09,187.2c26.58.3,53.26,0,79.84-.39a.24.24,0,0,0,0-.47c-26.59-.14-53.26-.12-79.84.46a.2.2,0,0,0,0,.4Z" style="fill:#e0e0e0"></path><rect x="56.41" y="43.03" width="10.09" height="50.23" transform="translate(-0.36 0.33) rotate(-0.31)" style="fill:#e0e0e0"></rect><rect x="66.31" y="24.3" width="10.09" height="69.08" transform="translate(-0.31 0.38) rotate(-0.31)" style="fill:#ebebeb"></rect><rect x="76.45" y="37.17" width="15.69" height="55.98" transform="translate(-0.35 0.45) rotate(-0.31)" style="fill:#f5f5f5"></rect><path d="M91.88,47.92a57,57,0,0,1-7.84.27,57,57,0,0,1-7.84-.27A56,56,0,0,1,84,47.64,56,56,0,0,1,91.88,47.92Z" style="fill:#e0e0e0"></path><path d="M91.88,45.56a56,56,0,0,1-7.84.28,56,56,0,0,1-7.84-.28A57,57,0,0,1,84,45.29,57,57,0,0,1,91.88,45.56Z" style="fill:#e0e0e0"></path><path d="M91.88,84.69A57,57,0,0,1,84,85a57,57,0,0,1-7.84-.27A57,57,0,0,1,84,84.42,57,57,0,0,1,91.88,84.69Z" style="fill:#e0e0e0"></path><path d="M91.88,82.34a57,57,0,0,1-7.84.27,57,57,0,0,1-7.84-.27A57,57,0,0,1,84,82.07,57,57,0,0,1,91.88,82.34Z" style="fill:#e0e0e0"></path><path d="M84.29,77.21c-.15,0-.27-5.65-.27-12.62S84.14,52,84.29,52s.27,5.65.27,12.61S84.44,77.21,84.29,77.21Z" style="fill:#e0e0e0"></path><rect x="92.05" y="50.88" width="17.07" height="42.26" style="fill:#ebebeb"></rect><path d="M73.92,36.07A2.9,2.9,0,1,1,71,33.16,2.9,2.9,0,0,1,73.92,36.07Z" style="fill:#e0e0e0"></path><rect x="70.12" y="44.04" width="1.79" height="41.1" style="fill:#e0e0e0"></rect><rect x="28.15" y="151.08" width="177.72" height="6.08" style="fill:#e0e0e0"></rect><rect x="28.15" y="93.41" width="177.72" height="6.08" style="fill:#e0e0e0"></rect><rect x="64.42" y="200.98" width="141.45" height="5.74" style="fill:#e0e0e0"></rect><rect x="110.23" y="98.3" width="6.78" height="57.37" style="fill:#e0e0e0"></rect><rect x="64.46" y="151.08" width="6.78" height="55.62" style="fill:#e0e0e0"></rect><path d="M150.94,125l-4.17,6s9.38,2.61,9.38,10.94-5.73,9.89-12,9.89-12.24-1.82-12-10.15,8.07-11.46,8.07-11.46l-3.9-5.2Z" style="fill:#f5f5f5"></path><rect x="702.15" y="49.01" width="7.03" height="151.08" style="fill:#e0e0e0"></rect><rect x="600.22" y="50.17" width="100.86" height="150.12" rx="0.1" style="fill:#f5f5f5"></rect><path d="M702.15,201.46h-103a.09.09,0,0,1-.1-.1V49.11a.09.09,0,0,1,.1-.1h103a.09.09,0,0,1,.1.1V201.36A.09.09,0,0,1,702.15,201.46Zm-100.66-2.34h98.33a.1.1,0,0,0,.1-.1V51.44a.11.11,0,0,0-.1-.1H601.49a.11.11,0,0,0-.1.1V199A.1.1,0,0,0,601.49,199.12Z" style="fill:#ebebeb"></path><rect x="610.38" y="59.44" width="80.73" height="131.5" rx="0.1" style="fill:#fff"></rect><rect x="627.99" y="96.72" width="45.33" height="53.13" rx="0.06" style="fill:#ebebeb"></rect><path d="M669.73,143.34c.06.17-2.18,1.15-6.43.65a15.71,15.71,0,0,1-7.24-2.89,14.7,14.7,0,0,1-5.62-8.84,12.71,12.71,0,0,1,4.3-12.09,11.47,11.47,0,0,1,3.26-1.91,8.81,8.81,0,0,1,4.08-.47,7.11,7.11,0,0,1,4.07,1.79,5.29,5.29,0,0,1,1.61,4.74,7.7,7.7,0,0,1-2.24,4.08,14.73,14.73,0,0,1-3.41,2.52,18.72,18.72,0,0,1-8.15,2.32,16.17,16.17,0,0,1-8.68-2,15.82,15.82,0,0,1-6.39-6.62,13.48,13.48,0,0,1-1.14-9.28,13.76,13.76,0,0,1,4.88-7.64,12.2,12.2,0,0,1,4.1-2.07,10.16,10.16,0,0,1,4.62-.14,7.5,7.5,0,0,1,4.18,2.36,6.94,6.94,0,0,1,1.65,4.47,8.59,8.59,0,0,1-1.1,4.27,11.26,11.26,0,0,1-2.58,3.1,17.41,17.41,0,0,1-6.42,3.42,16.45,16.45,0,0,1-6.76.52,14,14,0,0,1-5.88-2.25,12.73,12.73,0,0,1-5.61-8.9,10.67,10.67,0,0,1,2.08-7.62,9,9,0,0,1,3.85-3.08c1-.4,1.66-.39,1.68-.29s-.48.38-1.33,1a10,10,0,0,0-3,3.21,9.54,9.54,0,0,0-1.22,6.52,10.7,10.7,0,0,0,5,7,12.33,12.33,0,0,0,10.3,1,14.4,14.4,0,0,0,5.15-2.92,6.29,6.29,0,0,0,2.41-4.83,3.47,3.47,0,0,0-3.1-3.42,6.61,6.61,0,0,0-3,.13,8.57,8.57,0,0,0-2.8,1.47,10.22,10.22,0,0,0-3.53,5.62,9.84,9.84,0,0,0,.87,6.73A12.11,12.11,0,0,0,647.1,128a12.63,12.63,0,0,0,6.71,1.57,15.27,15.27,0,0,0,6.59-1.81,11.56,11.56,0,0,0,2.64-1.85,4.55,4.55,0,0,0,1.33-2.18,1.87,1.87,0,0,0-.54-1.75,3.9,3.9,0,0,0-2.18-1,5.55,5.55,0,0,0-2.57.22,8.31,8.31,0,0,0-2.39,1.31,10,10,0,0,0-3.65,9.25,12.71,12.71,0,0,0,4.32,7.65,15.19,15.19,0,0,0,6.21,3.1C667.4,143.46,669.7,143,669.73,143.34Z" style="fill:#e0e0e0"></path><polygon points="192.43 454.35 192.43 479.03 228.53 479.03 268.34 479.03 268.34 454.35 192.43 454.35" style="fill:#f5f5f5"></polygon><polygon points="189.25 447.45 189.25 454.35 271 454.35 271 447.45 228.53 447.45 189.25 447.45" style="fill:#e0e0e0"></polygon><polygon points="230.12 479.03 268.34 479.03 268.34 454.35 271 454.35 271 447.45 228.53 447.45 228.53 453.71 230.12 479.03" style="fill:#e0e0e0"></polygon><rect x="203.05" y="458.33" width="15.39" height="3.72" style="fill:#e0e0e0"></rect><rect x="201.07" y="466.69" width="19.77" height="7.85" style="fill:#fff"></rect><polygon points="210.1 422.8 210.1 447.48 246.19 447.48 286.01 447.48 286.01 422.8 210.1 422.8" style="fill:#f5f5f5"></polygon><polygon points="206.91 415.9 206.91 422.8 288.66 422.8 288.66 415.9 246.19 415.9 206.91 415.9" style="fill:#e0e0e0"></polygon><polygon points="247.79 447.48 286.01 447.48 286.01 422.8 288.66 422.8 288.66 415.9 246.19 415.9 246.19 422.16 247.79 447.48" style="fill:#e0e0e0"></polygon><rect x="220.71" y="426.78" width="15.39" height="3.72" style="fill:#e0e0e0"></rect><rect x="218.73" y="435.14" width="19.77" height="7.85" style="fill:#fff"></rect><polygon points="55.36 453.46 55.36 478.14 91.46 478.14 131.27 478.14 131.27 453.46 55.36 453.46" style="fill:#f5f5f5"></polygon><polygon points="52.18 446.56 52.18 453.46 133.93 453.46 133.93 446.56 91.46 446.56 52.18 446.56" style="fill:#e0e0e0"></polygon><polygon points="93.05 478.14 131.27 478.14 131.27 453.46 133.93 453.46 133.93 446.56 91.46 446.56 91.46 452.82 93.05 478.14" style="fill:#e0e0e0"></polygon><rect x="65.98" y="457.44" width="15.39" height="3.72" style="fill:#e0e0e0"></rect><rect x="64" y="465.8" width="19.77" height="7.85" style="fill:#fff"></rect></g><g id="freepik--Floor--inject-84"><path d="M677.66,478.23c0,.14-133.28.26-297.65.26s-297.67-.12-297.67-.26S215.59,478,380,478,677.66,478.08,677.66,478.23Z" style="fill:#263238"></path></g><g id="freepik--Device--inject-84"><path d="M619.55,78.28l-.17,305.81a17.11,17.11,0,0,1-17.13,17.11L148.48,401a17.11,17.11,0,0,1-17.11-17.13L131.53,78A17.14,17.14,0,0,1,148.66,60.9l453.77.24A17.14,17.14,0,0,1,619.55,78.28Z" style="fill:#e0e0e0"></path><path d="M619.55,78.28s0-.36-.07-1.06a8.86,8.86,0,0,0-.13-1.3,13.81,13.81,0,0,0-.36-1.79,16.09,16.09,0,0,0-2-4.74,17.39,17.39,0,0,0-4.86-5.15,16.39,16.39,0,0,0-3.8-2,16.57,16.57,0,0,0-4.63-1l-1.26-.06H391.09l-120.38,0-67,0h-53a28.86,28.86,0,0,0-4.47.2,16.55,16.55,0,0,0-4.28,1.2A17,17,0,0,0,135,68.08,19.65,19.65,0,0,0,133.81,70a21,21,0,0,0-.92,2,16.93,16.93,0,0,0-1,4.39c-.1,1.49-.08,3-.08,4.57v4.61q0,9.22,0,18.57,0,18.69,0,37.79,0,38.2,0,77.94c0,52.95-.05,107.76-.08,163.9a19.22,19.22,0,0,0,.77,5.11,18.21,18.21,0,0,0,2.29,4.61,16.76,16.76,0,0,0,3.57,3.71,15.78,15.78,0,0,0,4.5,2.46c3.23,1.31,6.77,1,10.24,1h10.42l41.31,0,80.77,0,152.7.1,138.16.09,16.09,0h7.94a33.76,33.76,0,0,0,3.91-.13,16.65,16.65,0,0,0,3.76-.91,17,17,0,0,0,10.29-10.64c.19-.6.32-1.22.49-1.83s.21-1.24.26-1.87c.09-1.25.09-2.52.08-3.79q0-3.81,0-7.57,0-30.12,0-57.76c.07-73.59.13-133.14.17-174.3,0-20.58.06-36.56.08-47.39,0-5.42,0-9.55,0-12.33s0-4.19,0-4.19,0,1.42,0,4.19,0,6.91,0,12.33c0,10.83,0,26.81,0,47.39,0,41.16,0,100.71,0,174.3q0,27.6,0,57.76v7.57c0,1.27,0,2.54-.08,3.83-.06.64-.18,1.28-.27,1.92s-.3,1.26-.5,1.87a17.4,17.4,0,0,1-10.54,10.91,16.38,16.38,0,0,1-3.85.92,30.9,30.9,0,0,1-4,.14h-24l-138.17-.05-152.69-.07-80.77,0-41.31,0H153c-1.74,0-3.47,0-5.23,0a17.38,17.38,0,0,1-9.83-3.56,16.64,16.64,0,0,1-3.67-3.82,17.93,17.93,0,0,1-2.36-4.76,19.1,19.1,0,0,1-.8-5.26c0-56.14.06-111,.09-163.9q0-39.7.05-77.94,0-19.09,0-37.79,0-9.34,0-18.57V81c0-1.54,0-3.06.08-4.62a17.87,17.87,0,0,1,1.07-4.51,18.14,18.14,0,0,1,.95-2.11,20.68,20.68,0,0,1,1.25-1.94,17.49,17.49,0,0,1,7.11-5.7,17,17,0,0,1,4.41-1.23,28.73,28.73,0,0,1,4.53-.2h17.9l35.07,0,67,0,120.38.1L565.4,61l27.35,0h9.7l1.27.06a16.36,16.36,0,0,1,4.66,1,16.77,16.77,0,0,1,3.82,2,17.56,17.56,0,0,1,4.87,5.2,16.34,16.34,0,0,1,2,4.76,13.89,13.89,0,0,1,.34,1.8,8.91,8.91,0,0,1,.12,1.31C619.54,77.92,619.55,78.28,619.55,78.28Z" style="fill:#263238"></path><rect x="209.65" y="27.91" width="318.61" height="407.55" transform="matrix(0, -1, 1, 0, 137.07, 600.52)" style="fill:#fff"></rect><path d="M595,218.12a13.05,13.05,0,1,1-13.06,13A13.05,13.05,0,0,1,595,218.12Z" style="fill:#263238"></path><rect x="96.99" y="228.24" width="102.42" height="5.39" rx="1.22" transform="matrix(0, -1, 1, 0, -82.81, 379.01)" style="fill:#263238"></rect><rect x="196.3" y="342.77" width="159.37" height="26.4" rx="5.43" style="fill:#f5f5f5"></rect><rect x="194.94" y="286.22" width="159.37" height="26.4" rx="5.43" style="fill:#f5f5f5"></rect><rect x="366.21" y="286.22" width="159.37" height="26.4" rx="5.43" style="fill:#f5f5f5"></rect><rect x="370.47" y="125.54" width="153.44" height="26.4" rx="5.43" style="fill:#f5f5f5"></rect><rect x="196.3" y="177.97" width="331.23" height="26.4" rx="5.43" style="fill:#f5f5f5"></rect><rect x="196.06" y="125.54" width="159.37" height="26.4" rx="5.43" style="fill:#f5f5f5"></rect><path d="M207.11,139.37v1.8h-.74v-1.81L204.31,136h.79l1.67,2.74,1.67-2.74h.73Z" style="fill:#e0e0e0"></path><path d="M209,139.2a2.05,2.05,0,1,1,2.05,2A2,2,0,0,1,209,139.2Zm3.38,0a1.33,1.33,0,1,0-1.33,1.39A1.29,1.29,0,0,0,212.39,139.2Z" style="fill:#e0e0e0"></path><path d="M217.77,137.23v3.94h-.68v-.59a1.62,1.62,0,0,1-1.34.63,1.54,1.54,0,0,1-1.69-1.71v-2.27h.71v2.19c0,.77.39,1.16,1.07,1.16a1.15,1.15,0,0,0,1.21-1.31v-2Z" style="fill:#e0e0e0"></path><path d="M221.25,137.19v.7h-.17a1.18,1.18,0,0,0-1.24,1.33v2h-.71v-3.94h.68v.66A1.52,1.52,0,0,1,221.25,137.19Z" style="fill:#e0e0e0"></path><path d="M228.76,136v5.2h-.61L225,137.29v3.88h-.74V136h.61l3.12,3.88V136Z" style="fill:#e0e0e0"></path><path d="M233.34,138.79v2.38h-.68v-.52a1.46,1.46,0,0,1-1.29.56c-.9,0-1.46-.47-1.46-1.15s.41-1.16,1.58-1.16h1.13v-.14c0-.6-.35-.95-1.05-.95a1.93,1.93,0,0,0-1.25.43l-.3-.54a2.62,2.62,0,0,1,1.63-.51C232.73,137.19,233.34,137.71,233.34,138.79Zm-.72,1.18v-.55h-1.1c-.7,0-.9.27-.9.61s.32.63.86.63A1.14,1.14,0,0,0,232.62,140Z" style="fill:#e0e0e0"></path><path d="M241.2,138.9v2.27h-.71V139c0-.78-.38-1.16-1-1.16s-1.18.46-1.18,1.31v2h-.72V139c0-.78-.37-1.16-1-1.16a1.15,1.15,0,0,0-1.18,1.31v2h-.71v-3.94h.68v.59a1.62,1.62,0,0,1,1.36-.63,1.46,1.46,0,0,1,1.37.73,1.8,1.8,0,0,1,1.52-.73A1.51,1.51,0,0,1,241.2,138.9Z" style="fill:#e0e0e0"></path><path d="M246.08,139.44h-3.19a1.34,1.34,0,0,0,1.43,1.15,1.49,1.49,0,0,0,1.13-.47l.4.46a2,2,0,0,1-1.56.63,2,2,0,0,1-2.11-2,1.93,1.93,0,0,1,2-2,1.9,1.9,0,0,1,1.95,2A1.8,1.8,0,0,1,246.08,139.44Zm-3.19-.51h2.53a1.27,1.27,0,0,0-2.53,0Z" style="fill:#e0e0e0"></path><path d="M224.42,113.59v5.21h-.8l-2.87-3.53v3.53h-1v-5.21h.8l2.87,3.53v-3.53Z" style="fill:#263238"></path><path d="M229.05,116.47v2.33h-.88v-.49a1.38,1.38,0,0,1-1.25.54c-.9,0-1.48-.5-1.48-1.19s.45-1.18,1.65-1.18h1v-.06c0-.54-.33-.86-1-.86a1.92,1.92,0,0,0-1.2.39l-.37-.68a2.85,2.85,0,0,1,1.68-.49C228.39,114.78,229.05,115.33,229.05,116.47Zm-.93,1.09v-.47h-1c-.63,0-.8.24-.8.53s.28.55.76.55A1,1,0,0,0,228.12,117.56Z" style="fill:#263238"></path><path d="M236.87,116.52v2.28H236v-2.16c0-.7-.33-1-.9-1s-1,.4-1,1.19v2h-.93v-2.16c0-.7-.32-1-.89-1s-1,.4-1,1.19v2h-.93v-4h.88v.5a1.67,1.67,0,0,1,1.3-.55,1.5,1.5,0,0,1,1.34.66,1.89,1.89,0,0,1,1.49-.66A1.52,1.52,0,0,1,236.87,116.52Z" style="fill:#263238"></path><path d="M241.82,117.11h-3.11a1.19,1.19,0,0,0,1.28,1,1.42,1.42,0,0,0,1.08-.43l.5.57a2.23,2.23,0,0,1-3.79-1.39,2,2,0,0,1,2.05-2,1.94,1.94,0,0,1,2,2C241.84,116.91,241.83,117,241.82,117.11Zm-3.12-.62H241a1.07,1.07,0,0,0-1.12-1A1.09,1.09,0,0,0,238.7,116.49Z" style="fill:#263238"></path><path d="M202.44,114.62v1.29h2.26v.91h-2.26v1.77h-1.12v-4.87H205v.9Z" style="fill:#263238"></path><path d="M205.48,113.72a.62.62,0,0,1,.67-.61.61.61,0,0,1,.68.59.63.63,0,0,1-.68.63A.62.62,0,0,1,205.48,113.72Zm.13,1.13h1.09v3.74h-1.09Z" style="fill:#263238"></path><path d="M210,114.79v1h-.25a.92.92,0,0,0-1,1v1.77H207.7v-3.74h1v.49A1.53,1.53,0,0,1,210,114.79Z" style="fill:#263238"></path><path d="M210.32,118.24l.37-.78a2.5,2.5,0,0,0,1.3.36c.5,0,.69-.13.69-.34,0-.61-2.27,0-2.27-1.48,0-.71.64-1.21,1.74-1.21a3.09,3.09,0,0,1,1.44.33l-.36.77a2.15,2.15,0,0,0-1.08-.28c-.49,0-.7.16-.7.35,0,.64,2.26,0,2.26,1.5,0,.69-.64,1.19-1.76,1.19A3.23,3.23,0,0,1,210.32,118.24Z" style="fill:#263238"></path><path d="M216.79,118.41a1.54,1.54,0,0,1-.88.24,1.24,1.24,0,0,1-1.4-1.35v-1.53h-.58v-.84h.58V114h1.08v.91h.94v.84h-.94v1.52a.44.44,0,0,0,.47.49.74.74,0,0,0,.44-.14Z" style="fill:#263238"></path><path d="M246.6,113l-.85,1.11v0l1.35-.18v.61l-1.35-.16h0l.86,1.08-.56.32-.54-1.25h0l-.58,1.26-.51-.33.85-1.08v0l-1.32.17v-.61l1.31.17v0L244.4,113l.55-.31.55,1.24h0l.54-1.25Z" style="fill:#26AEC0"></path><path d="M208.13,301v1.8h-.73V301l-2.07-3.38h.8l1.66,2.74,1.67-2.74h.74Z" style="fill:#e0e0e0"></path><path d="M210,300.82a2,2,0,1,1,2.05,2A2,2,0,0,1,210,300.82Zm3.37,0a1.33,1.33,0,1,0-2.65,0,1.33,1.33,0,1,0,2.65,0Z" style="fill:#e0e0e0"></path><path d="M218.79,298.85v3.94h-.67v-.6a1.6,1.6,0,0,1-1.34.64,1.55,1.55,0,0,1-1.7-1.71v-2.27h.72V301c0,.78.38,1.16,1.06,1.16a1.16,1.16,0,0,0,1.22-1.3v-2Z" style="fill:#e0e0e0"></path><path d="M222.27,298.81v.69h-.16a1.17,1.17,0,0,0-1.24,1.33v2h-.72v-3.94h.69v.66A1.5,1.5,0,0,1,222.27,298.81Z" style="fill:#e0e0e0"></path><path d="M229.78,297.59v5.2h-.61l-3.12-3.88v3.88h-.74v-5.2h.61l3.12,3.88v-3.88Z" style="fill:#e0e0e0"></path><path d="M234.36,300.41v2.38h-.68v-.52a1.46,1.46,0,0,1-1.29.56c-.89,0-1.46-.47-1.46-1.16s.41-1.15,1.59-1.15h1.13v-.14c0-.6-.35-.95-1.06-.95a2,2,0,0,0-1.25.42l-.29-.53a2.57,2.57,0,0,1,1.62-.51C233.75,298.81,234.36,299.33,234.36,300.41Zm-.71,1.17V301h-1.1c-.71,0-.91.28-.91.61s.33.64.87.64A1.14,1.14,0,0,0,233.65,301.58Z" style="fill:#e0e0e0"></path><path d="M242.22,300.52v2.27h-.71V300.6c0-.77-.37-1.15-1-1.15s-1.18.45-1.18,1.31v2h-.71V300.6c0-.77-.37-1.15-1-1.15s-1.18.45-1.18,1.31v2h-.72v-3.94h.69v.59a1.57,1.57,0,0,1,1.36-.63,1.47,1.47,0,0,1,1.37.73,1.74,1.74,0,0,1,1.51-.73A1.51,1.51,0,0,1,242.22,300.52Z" style="fill:#e0e0e0"></path><path d="M247.11,301.06h-3.2a1.34,1.34,0,0,0,1.43,1.15,1.48,1.48,0,0,0,1.14-.48l.39.46a2.15,2.15,0,0,1-3.67-1.37,1.93,1.93,0,0,1,2-2,1.9,1.9,0,0,1,1.94,2A1.7,1.7,0,0,1,247.11,301.06Zm-3.2-.52h2.53a1.27,1.27,0,0,0-2.53,0Z" style="fill:#e0e0e0"></path><path d="M237.87,272.5l-.85,1.12v0l1.35-.18v.61l-1.35-.16h0l.86,1.08-.56.32-.54-1.25h0l-.58,1.26-.51-.33.85-1.08v0l-1.32.17v-.61l1.31.17v0l-.84-1.09.55-.31.55,1.24h0l.54-1.25Z" style="fill:#26AEC0"></path><path d="M394.88,274.74l-.85,1.11v0l1.35-.18v.61l-1.35-.16v0l.86,1.07-.56.32-.54-1.25h0l-.59,1.26-.5-.32.84-1.09v0l-1.32.17v-.61l1.32.17h0l-.84-1.09.54-.32.55,1.24h0l.55-1.24Z" style="fill:#26AEC0"></path><path d="M378,301v1.8h-.74V301l-2.06-3.38H376l1.67,2.74,1.67-2.74h.73Z" style="fill:#e0e0e0"></path><path d="M379.94,300.82a2.05,2.05,0,1,1,2.05,2A2,2,0,0,1,379.94,300.82Zm3.38,0a1.33,1.33,0,1,0-1.33,1.39A1.29,1.29,0,0,0,383.32,300.82Z" style="fill:#e0e0e0"></path><path d="M388.7,298.85v3.94H388v-.6a1.6,1.6,0,0,1-1.34.64,1.55,1.55,0,0,1-1.69-1.71v-2.27h.71V301c0,.78.39,1.16,1.07,1.16a1.15,1.15,0,0,0,1.21-1.3v-2Z" style="fill:#e0e0e0"></path><path d="M392.18,298.81v.69H392a1.17,1.17,0,0,0-1.24,1.33v2h-.71v-3.94h.68v.66A1.52,1.52,0,0,1,392.18,298.81Z" style="fill:#e0e0e0"></path><path d="M399.69,297.59v5.2h-.61L396,298.91v3.88h-.74v-5.2h.61l3.12,3.88v-3.88Z" style="fill:#e0e0e0"></path><path d="M404.27,300.41v2.38h-.68v-.52a1.48,1.48,0,0,1-1.29.56c-.9,0-1.46-.47-1.46-1.16s.41-1.15,1.58-1.15h1.13v-.14c0-.6-.35-.95-1.05-.95a2,2,0,0,0-1.25.42l-.3-.53a2.62,2.62,0,0,1,1.63-.51C403.66,298.81,404.27,299.33,404.27,300.41Zm-.72,1.17V301h-1.1c-.7,0-.9.28-.9.61s.32.64.87.64A1.13,1.13,0,0,0,403.55,301.58Z" style="fill:#e0e0e0"></path><path d="M412.13,300.52v2.27h-.71V300.6c0-.77-.38-1.15-1-1.15s-1.18.45-1.18,1.31v2h-.72V300.6c0-.77-.37-1.15-1-1.15s-1.18.45-1.18,1.31v2h-.71v-3.94h.68v.59a1.59,1.59,0,0,1,1.36-.63,1.47,1.47,0,0,1,1.37.73,1.78,1.78,0,0,1,1.52-.73A1.51,1.51,0,0,1,412.13,300.52Z" style="fill:#e0e0e0"></path><path d="M417,301.06h-3.19a1.34,1.34,0,0,0,1.43,1.15,1.46,1.46,0,0,0,1.13-.48l.4.46a2.15,2.15,0,0,1-3.67-1.37,1.92,1.92,0,0,1,2-2,1.9,1.9,0,0,1,1.95,2A1.8,1.8,0,0,1,417,301.06Zm-3.19-.52h2.53a1.24,1.24,0,0,0-1.27-1.13A1.22,1.22,0,0,0,413.82,300.54Z" style="fill:#e0e0e0"></path><path d="M206.35,170.49v.81h-3.9v-5.21h3.8v.81h-2.83v1.36h2.51v.79h-2.51v1.44Z" style="fill:#263238"></path><path d="M214,169v2.28h-.93v-2.16c0-.71-.33-1-.89-1s-1,.4-1,1.19v2h-.93v-2.16c0-.71-.32-1-.89-1s-1,.4-1,1.19v2h-.93v-4h.89v.5a1.64,1.64,0,0,1,1.3-.55,1.48,1.48,0,0,1,1.33.66,1.89,1.89,0,0,1,1.49-.66A1.53,1.53,0,0,1,214,169Z" style="fill:#263238"></path><path d="M218.49,169v2.33h-.88v-.49a1.4,1.4,0,0,1-1.24.54c-.91,0-1.48-.5-1.48-1.19s.44-1.18,1.65-1.18h1v-.06c0-.54-.32-.86-1-.86a1.94,1.94,0,0,0-1.2.39l-.36-.68a2.83,2.83,0,0,1,1.68-.49C217.83,167.28,218.49,167.83,218.49,169Zm-.93,1.08v-.46h-1c-.63,0-.8.24-.8.53s.28.55.76.55A1,1,0,0,0,217.56,170.05Z" style="fill:#263238"></path><path d="M219.56,166.12a.56.56,0,0,1,.59-.56.55.55,0,0,1,.59.53.56.56,0,0,1-.59.58A.56.56,0,0,1,219.56,166.12Zm.12,1.21h.93v4h-.93Z" style="fill:#263238"></path><path d="M221.83,165.78h.93v5.52h-.93Z" style="fill:#263238"></path><path d="M208.13,192.74v1.8h-.73v-1.82l-2.07-3.38h.8l1.66,2.74,1.67-2.74h.74Z" style="fill:#e0e0e0"></path><path d="M210,192.57a2,2,0,1,1,2.05,2A2,2,0,0,1,210,192.57Zm3.37,0a1.33,1.33,0,1,0-2.65,0,1.33,1.33,0,1,0,2.65,0Z" style="fill:#e0e0e0"></path><path d="M218.79,190.6v3.94h-.67v-.6a1.6,1.6,0,0,1-1.34.64,1.55,1.55,0,0,1-1.7-1.71V190.6h.72v2.18c0,.78.38,1.16,1.06,1.16a1.16,1.16,0,0,0,1.22-1.3v-2Z" style="fill:#e0e0e0"></path><path d="M222.27,190.56v.69h-.16a1.17,1.17,0,0,0-1.24,1.33v2h-.72V190.6h.69v.66A1.5,1.5,0,0,1,222.27,190.56Z" style="fill:#e0e0e0"></path><path d="M229.08,193.89v.65h-3.77v-5.2H229V190h-2.93v1.6h2.61v.63h-2.61v1.68Z" style="fill:#e0e0e0"></path><path d="M236.72,192.27v2.27H236v-2.19c0-.77-.37-1.15-1-1.15s-1.18.45-1.18,1.31v2h-.71v-2.19c0-.77-.37-1.15-1-1.15s-1.18.45-1.18,1.31v2h-.72V190.6h.69v.59a1.59,1.59,0,0,1,1.36-.63,1.45,1.45,0,0,1,1.36.73,1.78,1.78,0,0,1,1.52-.73A1.51,1.51,0,0,1,236.72,192.27Z" style="fill:#e0e0e0"></path><path d="M241.16,192.16v2.38h-.67V194a1.49,1.49,0,0,1-1.3.56c-.89,0-1.45-.47-1.45-1.16s.41-1.15,1.58-1.15h1.13v-.14c0-.6-.35-.95-1.06-.95a2,2,0,0,0-1.24.42l-.3-.53a2.6,2.6,0,0,1,1.63-.51A1.47,1.47,0,0,1,241.16,192.16Zm-.71,1.17v-.55h-1.1c-.71,0-.91.28-.91.61s.33.64.87.64A1.14,1.14,0,0,0,240.45,193.33Z" style="fill:#e0e0e0"></path><path d="M242.36,189.38a.47.47,0,0,1,.48-.47.47.47,0,1,1-.48.47Zm.13,1.22h.71v3.94h-.71Z" style="fill:#e0e0e0"></path><path d="M244.56,189h.71v5.52h-.71Z" style="fill:#e0e0e0"></path><path d="M228.68,165.49l-.85,1.11v0l1.35-.18v.61l-1.35-.16h0l.86,1.08-.56.32-.54-1.25h0l-.59,1.26-.5-.33.84-1.08v0l-1.32.17v-.61l1.32.17v0l-.84-1.09.54-.31.55,1.24h0l.55-1.25Z" style="fill:#26AEC0"></path><path d="M269.29,219.45l-.85,1.12v0l1.35-.18V221l-1.35-.16h0l.86,1.08-.56.32L268.2,221h0l-.58,1.26-.51-.33.85-1.08v0l-1.32.17v-.61l1.31.17v0l-.84-1.09.55-.31.55,1.24h0l.54-1.25Z" style="fill:#26AEC0"></path><rect x="195.81" y="233.99" width="331.71" height="26.4" rx="5.43" style="fill:#f5f5f5"></rect><path d="M374.55,111.61h1V116h2.72v.82h-3.68Z" style="fill:#263238"></path><path d="M382.27,114.48v2.33h-.88v-.49a1.38,1.38,0,0,1-1.25.54c-.9,0-1.48-.5-1.48-1.19s.45-1.18,1.65-1.18h1v-.06c0-.54-.33-.86-1-.86a2,2,0,0,0-1.2.39l-.37-.68a2.85,2.85,0,0,1,1.68-.49C381.61,112.79,382.27,113.34,382.27,114.48Zm-.93,1.09v-.46h-1c-.63,0-.8.23-.8.52s.28.55.76.55A1,1,0,0,0,381.34,115.57Z" style="fill:#263238"></path><path d="M383,116.41l.35-.7a2.69,2.69,0,0,0,1.38.39c.59,0,.84-.16.84-.44,0-.76-2.46,0-2.46-1.63,0-.75.68-1.24,1.75-1.24a3.12,3.12,0,0,1,1.49.35l-.36.7a2.21,2.21,0,0,0-1.14-.3c-.56,0-.83.19-.83.45,0,.8,2.45.09,2.45,1.64,0,.75-.68,1.23-1.8,1.23A3,3,0,0,1,383,116.41Z" style="fill:#263238"></path><path d="M389.67,116.59a1.45,1.45,0,0,1-.89.27,1.22,1.22,0,0,1-1.37-1.34v-1.91h-.65v-.74h.65V112h.93v.91h1.06v.74h-1.06v1.89c0,.39.2.59.55.59a.83.83,0,0,0,.52-.16Z" style="fill:#263238"></path><path d="M397.2,111.61v5.2h-.79l-2.87-3.53v3.53h-1v-5.2h.79l2.87,3.52v-3.52Z" style="fill:#263238"></path><path d="M401.83,114.48v2.33H401v-.49a1.41,1.41,0,0,1-1.25.54c-.91,0-1.48-.5-1.48-1.19s.45-1.18,1.65-1.18h1v-.06c0-.54-.32-.86-1-.86a2,2,0,0,0-1.21.39l-.36-.68a2.83,2.83,0,0,1,1.68-.49C401.17,112.79,401.83,113.34,401.83,114.48Zm-.93,1.09v-.46H400c-.63,0-.81.23-.81.52s.29.55.76.55A1,1,0,0,0,400.9,115.57Z" style="fill:#263238"></path><path d="M409.66,114.53v2.28h-.93v-2.16c0-.7-.33-1.05-.89-1.05s-1,.41-1,1.19v2h-.93v-2.16c0-.7-.33-1.05-.89-1.05s-1,.41-1,1.19v2H403v-4h.88v.5a1.67,1.67,0,0,1,1.3-.55,1.49,1.49,0,0,1,1.34.67,1.84,1.84,0,0,1,1.48-.67A1.53,1.53,0,0,1,409.66,114.53Z" style="fill:#263238"></path><path d="M414.61,115.12h-3.12a1.2,1.2,0,0,0,1.29.95,1.45,1.45,0,0,0,1.08-.43l.49.57a2,2,0,0,1-1.59.65,2,2,0,0,1-2.2-2,2,2,0,0,1,2.05-2,1.94,1.94,0,0,1,2,2.06C414.62,114.92,414.61,115,414.61,115.12Zm-3.13-.62h2.26a1.15,1.15,0,0,0-2.26,0Z" style="fill:#263238"></path><path d="M383.74,139.37v1.8H383v-1.81L380.94,136h.8l1.66,2.74,1.67-2.74h.74Z" style="fill:#e0e0e0"></path><path d="M385.65,139.2a2,2,0,1,1,2.05,2A2,2,0,0,1,385.65,139.2Zm3.37,0a1.33,1.33,0,1,0-2.65,0,1.33,1.33,0,1,0,2.65,0Z" style="fill:#e0e0e0"></path><path d="M394.4,137.23v3.94h-.67v-.59a1.62,1.62,0,0,1-1.34.63,1.54,1.54,0,0,1-1.69-1.71v-2.27h.71v2.19c0,.77.39,1.16,1.06,1.16a1.16,1.16,0,0,0,1.22-1.31v-2Z" style="fill:#e0e0e0"></path><path d="M397.88,137.19v.7h-.16a1.17,1.17,0,0,0-1.24,1.33v2h-.71v-3.94h.68v.66A1.5,1.5,0,0,1,397.88,137.19Z" style="fill:#e0e0e0"></path><path d="M405.39,136v5.2h-.61l-3.12-3.88v3.88h-.74V136h.61l3.12,3.88V136Z" style="fill:#e0e0e0"></path><path d="M410,138.79v2.38h-.67v-.52a1.46,1.46,0,0,1-1.3.56c-.89,0-1.45-.47-1.45-1.15s.4-1.16,1.58-1.16h1.13v-.14c0-.6-.35-.95-1.06-.95a2,2,0,0,0-1.25.43l-.29-.54a2.59,2.59,0,0,1,1.62-.51C409.36,137.19,410,137.71,410,138.79Zm-.71,1.18v-.55h-1.1c-.71,0-.91.27-.91.61s.33.63.87.63A1.14,1.14,0,0,0,409.26,140Z" style="fill:#e0e0e0"></path><path d="M417.84,138.9v2.27h-.72V139c0-.78-.37-1.16-1-1.16a1.15,1.15,0,0,0-1.18,1.31v2h-.71V139c0-.78-.37-1.16-1-1.16a1.15,1.15,0,0,0-1.18,1.31v2h-.71v-3.94H412v.59a1.59,1.59,0,0,1,1.36-.63,1.47,1.47,0,0,1,1.37.73,1.77,1.77,0,0,1,1.51-.73A1.52,1.52,0,0,1,417.84,138.9Z" style="fill:#e0e0e0"></path><path d="M422.72,139.44h-3.19a1.32,1.32,0,0,0,1.42,1.15,1.51,1.51,0,0,0,1.14-.47l.39.46a2.15,2.15,0,0,1-3.67-1.38,1.93,1.93,0,0,1,2-2,1.89,1.89,0,0,1,1.94,2A1.7,1.7,0,0,1,422.72,139.44Zm-3.19-.51h2.52a1.27,1.27,0,0,0-2.52,0Z" style="fill:#e0e0e0"></path><path d="M419.71,111l-.85,1.11v0l1.35-.18v.61l-1.35-.16v0l.86,1.07-.56.32-.54-1.25h0l-.58,1.26-.51-.32.85-1.09v0l-1.32.17V112l1.31.17v0l-.84-1.09.55-.31.55,1.24h0l.54-1.25Z" style="fill:#26AEC0"></path><path d="M199.82,222.06a2.65,2.65,0,0,1,2.78-2.68,2.61,2.61,0,0,1,2.06.87l-.62.59a1.83,1.83,0,0,0-1.39-.61,1.83,1.83,0,1,0,0,3.65,1.83,1.83,0,0,0,1.39-.61l.62.59a2.61,2.61,0,0,1-2.06.87A2.65,2.65,0,0,1,199.82,222.06Z" style="fill:#263238"></path><path d="M205,222.67a2.12,2.12,0,1,1,2.11,2A2,2,0,0,1,205,222.67Zm3.29,0a1.18,1.18,0,1,0-1.18,1.24A1.16,1.16,0,0,0,208.32,222.67Z" style="fill:#263238"></path><path d="M214.06,222.38v2.28h-.93V222.5c0-.7-.35-1.05-.94-1.05a1.05,1.05,0,0,0-1.11,1.2v2h-.93v-4H211v.51a1.75,1.75,0,0,1,1.37-.56A1.56,1.56,0,0,1,214.06,222.38Z" style="fill:#263238"></path><path d="M217.63,224.44a1.45,1.45,0,0,1-.89.27,1.22,1.22,0,0,1-1.37-1.34v-1.91h-.66v-.74h.66v-.91h.93v.91h1.06v.74H216.3v1.89c0,.38.19.59.55.59a.85.85,0,0,0,.52-.16Z" style="fill:#263238"></path><path d="M221.72,222.33v2.33h-.88v-.49a1.38,1.38,0,0,1-1.25.54c-.91,0-1.48-.5-1.48-1.19s.45-1.18,1.65-1.18h1v-.06c0-.54-.33-.86-1-.86a1.9,1.9,0,0,0-1.2.39l-.37-.68a2.85,2.85,0,0,1,1.68-.49C221.06,220.64,221.72,221.19,221.72,222.33Zm-.93,1.08V223h-1c-.63,0-.8.24-.8.53s.28.55.75.55A1,1,0,0,0,220.79,223.41Z" style="fill:#263238"></path><path d="M222.62,222.67a2,2,0,0,1,2.15-2,1.79,1.79,0,0,1,1.69.92l-.71.42a1.13,1.13,0,0,0-1-.55,1.24,1.24,0,0,0,0,2.48,1.13,1.13,0,0,0,1-.55l.71.42a1.81,1.81,0,0,1-1.69.93A2,2,0,0,1,222.62,222.67Z" style="fill:#263238"></path><path d="M229.7,224.44a1.45,1.45,0,0,1-.89.27,1.22,1.22,0,0,1-1.37-1.34v-1.91h-.65v-.74h.65v-.91h.93v.91h1.06v.74h-1.06v1.89c0,.38.19.59.55.59a.85.85,0,0,0,.52-.16Z" style="fill:#263238"></path><path d="M238.4,219.45v5.21h-.79l-2.87-3.53v3.53h-1v-5.21h.79l2.87,3.53v-3.53Z" style="fill:#263238"></path><path d="M243.55,220.69v4h-.88v-.51a1.62,1.62,0,0,1-1.28.56,1.57,1.57,0,0,1-1.71-1.76v-2.26h.93v2.14c0,.72.34,1.06.93,1.06s1.08-.4,1.08-1.2v-2Z" style="fill:#263238"></path><path d="M251.41,222.38v2.28h-.93V222.5c0-.7-.33-1.05-.89-1.05s-1,.4-1,1.19v2h-.93V222.5c0-.7-.33-1.05-.89-1.05s-1,.4-1,1.19v2h-.93v-4h.89v.5a1.67,1.67,0,0,1,1.3-.55,1.51,1.51,0,0,1,1.34.66,1.87,1.87,0,0,1,1.48-.66A1.53,1.53,0,0,1,251.41,222.38Z" style="fill:#263238"></path><path d="M256.82,222.67a1.94,1.94,0,0,1-2,2,1.63,1.63,0,0,1-1.31-.57v.52h-.89v-5.52h.93v2a1.65,1.65,0,0,1,1.27-.53A1.93,1.93,0,0,1,256.82,222.67Zm-.95,0a1.18,1.18,0,1,0-1.17,1.24A1.15,1.15,0,0,0,255.87,222.67Z" style="fill:#263238"></path><path d="M261.42,223H258.3a1.21,1.21,0,0,0,1.29.95,1.43,1.43,0,0,0,1.08-.43l.5.57a2.23,2.23,0,0,1-3.79-1.39,2,2,0,0,1,2.05-2,1.93,1.93,0,0,1,2,2.05A2.72,2.72,0,0,1,261.42,223Zm-3.12-.62h2.25a1.14,1.14,0,0,0-2.25,0Z" style="fill:#263238"></path><path d="M264.62,220.64v.89a.82.82,0,0,0-.21,0,1.07,1.07,0,0,0-1.15,1.22v1.93h-.93v-4h.88v.58A1.56,1.56,0,0,1,264.62,220.64Z" style="fill:#263238"></path><path d="M205.82,277.11h-2.6l-.51,1.21h-1l2.34-5.21h1l2.34,5.21h-1Zm-.32-.76-1-2.27-1,2.27Z" style="fill:#263238"></path><path d="M211.78,272.8v5.52h-.89v-.52a1.66,1.66,0,0,1-1.32.57,2,2,0,0,1,0-4.07,1.61,1.61,0,0,1,1.28.54v-2Zm-.92,3.53a1.18,1.18,0,1,0-1.18,1.24A1.16,1.16,0,0,0,210.86,276.33Z" style="fill:#263238"></path><path d="M216.89,272.8v5.52H216v-.52a1.63,1.63,0,0,1-1.31.57,2,2,0,0,1,0-4.07,1.63,1.63,0,0,1,1.28.54v-2Zm-.92,3.53a1.18,1.18,0,1,0-1.18,1.24A1.16,1.16,0,0,0,216,276.33Z" style="fill:#263238"></path><path d="M220.4,274.3v.89a.82.82,0,0,0-.21,0,1.08,1.08,0,0,0-1.16,1.22v1.93h-.92v-4H219v.58A1.56,1.56,0,0,1,220.4,274.3Z" style="fill:#263238"></path><path d="M224.87,276.63h-3.11a1.19,1.19,0,0,0,1.28.95,1.42,1.42,0,0,0,1.08-.43l.5.57a2,2,0,0,1-1.6.65,2,2,0,0,1-2.19-2,2,2,0,0,1,2-2,1.93,1.93,0,0,1,2,2.05A2.72,2.72,0,0,1,224.87,276.63Zm-3.12-.62H224a1.07,1.07,0,0,0-1.12-1A1.09,1.09,0,0,0,221.75,276Z" style="fill:#263238"></path><path d="M225.33,277.92l.35-.7a2.69,2.69,0,0,0,1.38.39c.59,0,.84-.16.84-.44,0-.76-2.46,0-2.46-1.63,0-.75.68-1.24,1.75-1.24a3.24,3.24,0,0,1,1.49.34l-.36.71a2.21,2.21,0,0,0-1.14-.3c-.56,0-.83.19-.83.45,0,.8,2.45.09,2.45,1.64,0,.75-.68,1.23-1.8,1.23A3.13,3.13,0,0,1,225.33,277.92Z" style="fill:#263238"></path><path d="M229.15,277.92l.36-.7a2.66,2.66,0,0,0,1.38.39c.59,0,.83-.16.83-.44,0-.76-2.45,0-2.45-1.63,0-.75.68-1.24,1.75-1.24a3.24,3.24,0,0,1,1.49.34l-.36.71a2.21,2.21,0,0,0-1.14-.3c-.56,0-.83.19-.83.45,0,.8,2.45.09,2.45,1.64,0,.75-.68,1.23-1.8,1.23A3.19,3.19,0,0,1,229.15,277.92Z" style="fill:#263238"></path><path d="M209.11,355.82l2.16,1.22-.56,1-2.2-1.3v2.48h-1.09l0-2.48-2.2,1.3-.57-1,2.19-1.22-2.19-1.21.57-1,2.2,1.29,0-2.46h1.09v2.46l2.2-1.29.56,1Z" style="fill:#e0e0e0"></path><path d="M216.75,355.82l2.17,1.22-.57,1-2.2-1.3,0,2.48h-1.1l0-2.48-2.2,1.3-.56-1,2.18-1.22-2.18-1.21.56-1,2.2,1.29,0-2.46h1.1l0,2.46,2.2-1.29.57,1Z" style="fill:#e0e0e0"></path><path d="M224.39,355.82l2.17,1.22-.57,1-2.2-1.3,0,2.48h-1.09v-2.48l-2.2,1.3-.56-1,2.18-1.22L220,354.61l.56-1,2.2,1.29v-2.46h1.09l0,2.46,2.2-1.29.57,1Z" style="fill:#e0e0e0"></path><path d="M232,355.82,234.2,357l-.56,1-2.21-1.3,0,2.48h-1.09l0-2.48-2.2,1.3-.57-1,2.19-1.22-2.19-1.21.57-1,2.2,1.29,0-2.46h1.09l0,2.46,2.21-1.29.56,1Z" style="fill:#e0e0e0"></path><path d="M239.68,355.82l2.16,1.22-.56,1-2.2-1.3v2.48H238l0-2.48-2.2,1.3-.57-1,2.19-1.22-2.19-1.21.57-1,2.2,1.29,0-2.46h1.09v2.46l2.2-1.29.56,1Z" style="fill:#e0e0e0"></path><path d="M247.32,355.82l2.17,1.22-.57,1-2.2-1.3,0,2.48h-1.09v-2.48l-2.2,1.3-.56-1,2.18-1.22-2.18-1.21.56-1,2.2,1.29v-2.46h1.09l0,2.46,2.2-1.29.57,1Z" style="fill:#e0e0e0"></path><path d="M255,355.82l2.17,1.22-.56,1-2.21-1.3,0,2.48h-1.09l0-2.48L251.1,358l-.56-1,2.18-1.22-2.18-1.21.56-1,2.21,1.29,0-2.46h1.09l0,2.46,2.21-1.29.56,1Z" style="fill:#e0e0e0"></path><path d="M370.73,280l.33-.75a2.93,2.93,0,0,0,1.72.57c.81,0,1.15-.29,1.15-.67,0-1.13-3.09-.39-3.09-2.32,0-.84.67-1.56,2.09-1.56a3.39,3.39,0,0,1,1.74.46l-.31.76a2.84,2.84,0,0,0-1.43-.41c-.81,0-1.13.31-1.13.7,0,1.11,3.08.39,3.08,2.3,0,.83-.68,1.54-2.1,1.54A3.36,3.36,0,0,1,370.73,280Z" style="fill:#263238"></path><path d="M378.14,280.37a1.45,1.45,0,0,1-.89.27,1.22,1.22,0,0,1-1.37-1.33v-1.92h-.66v-.74h.66v-.9h.93v.9h1.06v.74h-1.06v1.89c0,.39.19.6.55.6a.85.85,0,0,0,.52-.17Z" style="fill:#263238"></path><path d="M382.23,278.26v2.33h-.88v-.48a1.4,1.4,0,0,1-1.25.53c-.91,0-1.48-.5-1.48-1.19s.45-1.18,1.65-1.18h1v-.06c0-.54-.33-.86-1-.86a2,2,0,0,0-1.2.39l-.37-.67a2.76,2.76,0,0,1,1.68-.49C381.56,276.58,382.23,277.12,382.23,278.26Zm-.93,1.09v-.46h-1c-.63,0-.8.24-.8.53s.28.55.75.55A1,1,0,0,0,381.3,279.35Z" style="fill:#263238"></path><path d="M385.8,280.37a1.45,1.45,0,0,1-.89.27,1.22,1.22,0,0,1-1.37-1.33v-1.92h-.65v-.74h.65v-.9h.93v.9h1.06v.74h-1.06v1.89c0,.39.2.6.55.6a.83.83,0,0,0,.52-.17Z" style="fill:#263238"></path><path d="M390.15,278.9H387a1.19,1.19,0,0,0,1.28,1,1.42,1.42,0,0,0,1.08-.43l.5.58a2,2,0,0,1-1.6.64,2,2,0,0,1-2.19-2,2,2,0,0,1,2.05-2,1.94,1.94,0,0,1,2,2.05C390.17,278.7,390.16,278.81,390.15,278.9Zm-3.12-.61h2.25a1.07,1.07,0,0,0-1.12-1A1.1,1.1,0,0,0,387,278.29Z" style="fill:#263238"></path><path d="M204.54,331.8c0,1.14-.84,1.85-2.21,1.85h-1.18v1.5h-1V330h2.14C203.7,330,204.54,330.65,204.54,331.8Zm-1,0c0-.65-.44-1-1.29-1h-1.13v2.06h1.13C203.13,332.83,203.57,332.45,203.57,331.8Z" style="fill:#263238"></path><path d="M208.71,332.83v2.32h-.88v-.48a1.4,1.4,0,0,1-1.25.53c-.91,0-1.48-.49-1.48-1.19s.45-1.18,1.65-1.18h1v-.06c0-.54-.33-.86-1-.86a1.9,1.9,0,0,0-1.2.4l-.37-.68a2.78,2.78,0,0,1,1.68-.49C208.05,331.14,208.71,331.68,208.71,332.83Zm-.93,1.08v-.46h-1c-.63,0-.8.24-.8.53s.28.55.75.55A1,1,0,0,0,207.78,333.91Z" style="fill:#263238"></path><path d="M209.44,334.76l.36-.71a2.69,2.69,0,0,0,1.38.4c.59,0,.84-.17.84-.44,0-.76-2.46-.05-2.46-1.63,0-.75.68-1.24,1.75-1.24a3.12,3.12,0,0,1,1.49.34l-.36.71a2.12,2.12,0,0,0-1.14-.3c-.56,0-.83.19-.83.45,0,.8,2.45.08,2.45,1.64,0,.74-.68,1.22-1.8,1.22A3.19,3.19,0,0,1,209.44,334.76Z" style="fill:#263238"></path><path d="M213.27,334.76l.36-.71a2.66,2.66,0,0,0,1.38.4c.59,0,.83-.17.83-.44,0-.76-2.45-.05-2.45-1.63,0-.75.68-1.24,1.75-1.24a3.05,3.05,0,0,1,1.48.34l-.35.71a2.12,2.12,0,0,0-1.14-.3c-.56,0-.83.19-.83.45,0,.8,2.45.08,2.45,1.64,0,.74-.68,1.22-1.8,1.22A3.19,3.19,0,0,1,213.27,334.76Z" style="fill:#263238"></path><path d="M223.67,331.18l-1.46,4h-.89l-1-2.73-1,2.73h-.89l-1.46-4h.88l1.05,2.93,1.09-2.93h.78l1.07,2.95,1.08-2.95Z" style="fill:#263238"></path><path d="M223.87,333.17a2.12,2.12,0,1,1,2.11,2A2,2,0,0,1,223.87,333.17Zm3.3,0a1.18,1.18,0,1,0-1.19,1.24A1.16,1.16,0,0,0,227.17,333.17Z" style="fill:#263238"></path><path d="M231.29,331.14V332l-.21,0a1.08,1.08,0,0,0-1.15,1.23v1.92H229v-4h.88v.58A1.57,1.57,0,0,1,231.29,331.14Z" style="fill:#263238"></path><path d="M235.93,329.64v5.51H235v-.51a1.63,1.63,0,0,1-1.32.56,2,2,0,0,1,0-4.06,1.63,1.63,0,0,1,1.28.53v-2Zm-.91,3.53a1.19,1.19,0,1,0-1.18,1.24A1.16,1.16,0,0,0,235,333.17Z" style="fill:#263238"></path><path d="M503.68,369.17a9,9,0,0,0,1.56-.29,5.41,5.41,0,0,0,3.28-2.92,6.65,6.65,0,0,0,.46-3.2c0-1.22,0-2.54,0-3.95,0-2.84,0-6.06,0-9.62a7.63,7.63,0,0,0-.27-2.65,5.22,5.22,0,0,0-1.52-2.26,5.12,5.12,0,0,0-2.54-1.22,23.47,23.47,0,0,0-3-.08l-13.38,0-30.67,0a5.16,5.16,0,0,0-5.15,4.72c0,2.6,0,5.24,0,7.8v7.55a5.54,5.54,0,0,0,.78,3.37,5.09,5.09,0,0,0,2.59,2.13,9,9,0,0,0,3.37.33h9.89l11.66,0,16.89.08,4.59.05,1.19,0,.41,0-.41,0-1.19,0-4.59,0-16.89.08-11.66,0h-9.89c-.58,0-1.15,0-1.74,0a5.47,5.47,0,0,1-1.79-.35,5.69,5.69,0,0,1-2.85-2.32,6.1,6.1,0,0,1-.86-3.63q0-3.71,0-7.55c0-2.58,0-5.16,0-7.85a5.74,5.74,0,0,1,1.81-3.68,5.67,5.67,0,0,1,3.86-1.51l30.67,0,13.38,0a25.08,25.08,0,0,1,3.12.1,5.64,5.64,0,0,1,4.35,3.77,7.81,7.81,0,0,1,.28,2.77c0,3.56,0,6.78,0,9.62,0,1.41,0,2.73,0,3.95a6.78,6.78,0,0,1-.53,3.28,5.43,5.43,0,0,1-3.43,2.94A4.47,4.47,0,0,1,503.68,369.17Z" style="fill:#26AEC0"></path><path d="M462.65,356.35a2.8,2.8,0,0,1,3-2.83,2.84,2.84,0,0,1,2.25,1l-.81.75a1.77,1.77,0,0,0-1.38-.64,1.75,1.75,0,0,0,0,3.49,1.74,1.74,0,0,0,1.38-.64l.81.75a3,3,0,0,1-5.21-1.85Z" style="fill:#26AEC0"></path><path d="M468.16,357a2.31,2.31,0,1,1,2.31,2.16A2.17,2.17,0,0,1,468.16,357Zm3.38,0a1.08,1.08,0,1,0-2.15,0,1.08,1.08,0,1,0,2.15,0Z" style="fill:#26AEC0"></path><path d="M477.87,356.68v2.4h-1.22v-2.22c0-.68-.31-1-.85-1s-1,.36-1,1.13v2.08h-1.21v-4.2h1.16v.49a1.84,1.84,0,0,1,1.39-.55A1.65,1.65,0,0,1,477.87,356.68Z" style="fill:#26AEC0"></path><path d="M481.67,358.87a1.74,1.74,0,0,1-1,.27,1.39,1.39,0,0,1-1.57-1.51v-1.72h-.64V355h.64v-1h1.22v1h1v.94h-1v1.71a.48.48,0,0,0,.52.55.81.81,0,0,0,.49-.15Z" style="fill:#26AEC0"></path><path d="M482.21,353.62a.69.69,0,0,1,.75-.68.68.68,0,0,1,.76.66.76.76,0,0,1-1.51,0Zm.15,1.26h1.21v4.2h-1.21Z" style="fill:#26AEC0"></path><path d="M489,356.68v2.4h-1.22v-2.22c0-.68-.31-1-.85-1s-1,.36-1,1.13v2.08H484.7v-4.2h1.16v.49a1.84,1.84,0,0,1,1.39-.55A1.65,1.65,0,0,1,489,356.68Z" style="fill:#26AEC0"></path><path d="M494.31,354.88v4.2h-1.15v-.5a1.72,1.72,0,0,1-1.3.56,1.67,1.67,0,0,1-1.79-1.89v-2.37h1.21v2.19c0,.7.31,1,.85,1s1-.36,1-1.13v-2.08Z" style="fill:#26AEC0"></path><path d="M499.53,357.32h-3.17a1.11,1.11,0,0,0,1.2.84,1.43,1.43,0,0,0,1.05-.4l.65.7a2.22,2.22,0,0,1-1.73.68,2.18,2.18,0,0,1-2.4-2.16,2.13,2.13,0,0,1,2.24-2.16,2.08,2.08,0,0,1,2.18,2.17C499.55,357.09,499.54,357.22,499.53,357.32Zm-3.19-.71h2.07a1,1,0,0,0-1-.87A1,1,0,0,0,496.34,356.61Z" style="fill:#26AEC0"></path><rect x="384.89" y="342.77" width="57.05" height="26.4" rx="5.43" style="fill:#26AEC0"></rect><path d="M404.13,358.54l.43-1a3.24,3.24,0,0,0,1.8.57c.75,0,1.05-.25,1.05-.59,0-1-3.17-.32-3.17-2.35,0-.92.75-1.7,2.3-1.7a3.64,3.64,0,0,1,1.89.49l-.39,1a3,3,0,0,0-1.51-.43c-.75,0-1,.28-1,.62,0,1,3.18.31,3.18,2.32,0,.91-.76,1.69-2.32,1.69A3.9,3.9,0,0,1,404.13,358.54Z" style="fill:#fff"></path><path d="M413.16,356.68v2.4H412v-.53a1.37,1.37,0,0,1-1.28.59c-1,0-1.57-.55-1.57-1.27s.52-1.26,1.8-1.26h1c0-.52-.31-.82-1-.82a2,2,0,0,0-1.21.39l-.43-.85a3.21,3.21,0,0,1,1.81-.51C412.42,354.82,413.16,355.41,413.16,356.68Zm-1.22,1.07v-.43h-.83c-.57,0-.75.21-.75.49s.25.51.68.51A.9.9,0,0,0,411.94,357.75Z" style="fill:#fff"></path><path d="M418.34,354.88l-1.77,4.2h-1.25l-1.77-4.2h1.26l1.16,2.86,1.2-2.86Z" style="fill:#fff"></path><path d="M422.81,357.32h-3.18a1.12,1.12,0,0,0,1.2.84,1.44,1.44,0,0,0,1.06-.4l.64.7a2.21,2.21,0,0,1-1.73.68,2.17,2.17,0,0,1-2.39-2.16,2.13,2.13,0,0,1,2.24-2.16,2.08,2.08,0,0,1,2.18,2.17C422.83,357.09,422.81,357.22,422.81,357.32Zm-3.19-.71h2.06a1,1,0,0,0-2.06,0Z" style="fill:#fff"></path><path d="M209.84,248.16V250h-.73v-1.82L207,244.76h.8l1.66,2.74,1.67-2.74h.74Z" style="fill:#e0e0e0"></path><path d="M211.75,248a2,2,0,1,1,2.05,2A2,2,0,0,1,211.75,248Zm3.37,0a1.33,1.33,0,1,0-2.65,0,1.33,1.33,0,1,0,2.65,0Z" style="fill:#e0e0e0"></path><path d="M220.5,246V250h-.67v-.6a1.6,1.6,0,0,1-1.34.64,1.54,1.54,0,0,1-1.69-1.71V246h.71v2.18c0,.78.39,1.16,1.06,1.16a1.15,1.15,0,0,0,1.22-1.3v-2Z" style="fill:#e0e0e0"></path><path d="M224,246v.69h-.16a1.17,1.17,0,0,0-1.24,1.33v2h-.71V246h.68v.66A1.5,1.5,0,0,1,224,246Z" style="fill:#e0e0e0"></path><path d="M231.49,244.76V250h-.61l-3.12-3.88V250H227v-5.2h.61l3.12,3.88v-3.88Z" style="fill:#e0e0e0"></path><path d="M236.62,246V250H236v-.6a1.6,1.6,0,0,1-1.34.64,1.55,1.55,0,0,1-1.7-1.71V246h.72v2.18c0,.78.38,1.16,1.06,1.16a1.16,1.16,0,0,0,1.22-1.3v-2Z" style="fill:#e0e0e0"></path><path d="M244.52,247.69V250h-.71v-2.19c0-.77-.37-1.15-1-1.15a1.15,1.15,0,0,0-1.18,1.31v2h-.71v-2.19c0-.77-.37-1.15-1-1.15a1.15,1.15,0,0,0-1.18,1.31v2H238V246h.69v.59A1.59,1.59,0,0,1,240,246a1.45,1.45,0,0,1,1.36.73,1.8,1.8,0,0,1,1.52-.73A1.51,1.51,0,0,1,244.52,247.69Z" style="fill:#e0e0e0"></path><path d="M249.92,248a1.92,1.92,0,0,1-2,2,1.63,1.63,0,0,1-1.4-.67V250h-.69v-5.51h.72v2.17a1.64,1.64,0,0,1,1.37-.64A1.92,1.92,0,0,1,249.92,248Zm-.72,0a1.33,1.33,0,1,0-1.33,1.39A1.29,1.29,0,0,0,249.2,248Z" style="fill:#e0e0e0"></path><path d="M254.46,248.23h-3.2a1.34,1.34,0,0,0,1.43,1.15,1.48,1.48,0,0,0,1.14-.48l.39.46a2.15,2.15,0,0,1-3.67-1.37,1.93,1.93,0,0,1,2-2,1.9,1.9,0,0,1,1.95,2C254.47,248.07,254.46,248.16,254.46,248.23Zm-3.2-.52h2.53a1.27,1.27,0,0,0-2.53,0Z" style="fill:#e0e0e0"></path><path d="M257.58,246v.69h-.16a1.17,1.17,0,0,0-1.24,1.33v2h-.72V246h.69v.66A1.5,1.5,0,0,1,257.58,246Z" style="fill:#e0e0e0"></path><rect x="164.97" y="71.85" width="407.96" height="24.97" style="fill:#26AEC0"></rect><path d="M189.31,83.12v1.65h2.89v1.16h-2.89v2.28h-1.44V82h4.72v1.16Z" style="fill:#fff"></path><path d="M193.11,85.08a3.43,3.43,0,1,1,3.42,3.23A3.23,3.23,0,0,1,193.11,85.08Zm5.37,0a2,2,0,1,0-1.95,2A1.9,1.9,0,0,0,198.48,85.08Z" style="fill:#fff"></path><path d="M205,88.21l-1.2-1.74h-1.33v1.74H201V82h2.71c1.67,0,2.71.86,2.71,2.26a2,2,0,0,1-1.28,2l1.4,2Zm-1.35-5.07h-1.18v2.17h1.18c.88,0,1.33-.41,1.33-1.09S204.54,83.14,203.66,83.14Z" style="fill:#fff"></path><path d="M213.28,88.21V84.46l-1.84,3.09h-.65l-1.83-3v3.67h-1.36V82h1.2l2.34,3.88,2.3-3.88h1.19v6.25Z" style="fill:#fff"></path><path d="M572.81,72.49l-407.55,0,.24-.24c-.05,95.09-.09,203.72-.15,318.58v0l-.26-.27,407.56.26-.22.22c.23-192.32.38-316.82.38-318.61,0,1.79,0,126.29.05,318.61v.22h-.21l-407.56-.17h-.26v-.3c.07-114.86.14-223.49.2-318.58V72h.23Z" style="fill:#263238"></path></g></svg>